<?xml version="1.0" encoding="UTF-8"?>
<svg width="314px" height="263px" viewBox="0 0 314 263" version="1.1" xmlns="http://www.w3.org/2000/svg" xmlns:xlink="http://www.w3.org/1999/xlink">
    <!-- Generator: Sketch 43.2 (39069) - http://www.bohemiancoding.com/sketch -->
    <title>Group 2@2x</title>
    <desc>Created with Sketch.</desc>
    <defs></defs>
    <g id="Page-1" stroke="none" stroke-width="1" fill="none" fill-rule="evenodd">
        <g id="Artboard" transform="translate(-58.000000, -26.000000)">
            <g id="Group-2" transform="translate(58.000000, 26.000000)">
                <path d="M254.919415,39.7634577 C265.108744,21.3026689 293.371971,29.2990922 301.574718,56.5420008 C311.642366,89.9786036 357.979194,262.217735 156.234206,262.268541 C-45.5107821,262.319347 2.67526802,93.1568514 10.8936694,56.5420008 C17.6645006,26.3764049 47.456733,20.20405 57.7417405,40.1481702 C48.5498587,75.3305676 38.234881,200.38578 156.20931,200.423916 C274.046929,200.38582 265.390094,72.0112744 254.919415,39.7634577 L254.919415,39.7634577 Z" id="Combined-Shape" fill="#00B16A"></path>
                <path d="M213.064036,21.1240538 C223.685035,16.2415947 240.756754,23.8127911 247.560975,38.4445664 C257.765176,60.3876463 272.435952,193.206506 156.231228,193.244074 C40.0264905,193.206511 56.246732,64.1217858 64.9014676,38.4445664 C70.7860096,20.986069 88.7785503,14.3211748 99.6937236,20.6463172 C96.1785651,28.0735404 94.2,36.4470637 94.2,44.9658423 C97.34,82.6344411 97.4323529,74.6888218 107.803667,93.967049 L117.276887,125.612607 C113.917353,152.555891 144.976857,160.531511 152.760513,154.939577 C154.972483,153.350453 156.906769,153.420877 159.955547,154.939577 C168.293334,159.092914 198.512647,152.555891 194.654172,125.614988 L201.745783,95.56964 C214.212647,77.8670695 215.09,73.0996979 218.23,44.9658423 C218.23,36.6762491 216.375691,28.4680983 213.064036,21.1240538 L213.064036,21.1240538 Z" id="Combined-Shape" fill="#00B16A"></path>
                <g id="Group" transform="translate(98.910000, 0.000000)" fill="#00B268">
                    <path d="M13.9751453,86.6055558 C6.8395713,75.8981872 3.25834761,77.5476533 0.763875082,47.6230403 C0.763875082,18.9797472 25.2981864,-7.86237159 54.1554298,3.72848237 L60.7153799,3.72848237 C89.5726233,-8.58679996 113.846125,18.9850668 113.846125,47.6230403 C111.402523,69.5172892 107.394604,75.8902677 99.2047026,87.3242688 C99.2328769,87.5705691 99.2471812,87.8088858 99.2471812,88.037457 C99.2471812,90.757002 96.435799,97.0335808 93.0874132,100.197695 L88.1412024,121.153532 C91.6591012,145.716443 68.3172166,151.676463 60.7153799,147.889729 C57.9357086,146.505079 56.1721563,146.440872 54.1554298,147.889729 C47.0588141,152.98808 22.9508988,145.716443 26.0138969,121.151361 L19.6439768,99.8724642 C16.4436709,96.620691 13.8158858,90.666703 13.8158858,88.037457 C13.8158858,87.5927248 13.8700386,87.1110984 13.9751453,86.6055558 L13.9751453,86.6055558 Z M79.7817168,100.32205 C80.2861931,100.603431 80.7776224,100.884876 81.2472136,101.170747 C86.0386498,104.087613 92.3186498,92.1691843 92.3186498,88.1963746 C92.3186498,86.6205655 91.6069976,84.5599089 90.3396105,82.6469549 C90.313828,82.7413244 90.2866653,82.8354933 90.2581051,82.9294445 C82.7560656,77.623401 82.6634478,88.7552093 79.7817168,100.32205 L79.7817168,100.32205 Z M34.3280169,100.32205 C31.4462859,88.7552093 31.3536681,77.623401 23.8516286,82.9294445 C23.8230684,82.8354933 23.7959056,82.7413244 23.7701231,82.6469549 C22.5027361,84.5599089 21.7910839,86.6205655 21.7910839,88.1963746 C21.7910839,92.1691843 28.0710839,104.087613 32.8625201,101.170747 C33.3321113,100.884876 33.8235405,100.603431 34.3280169,100.32205 L34.3280169,100.32205 Z" id="Combined-Shape"></path>
                </g>
            </g>
        </g>
    </g>
</svg>